<svg width="24" height="24" viewBox="0 0 24 24" fill="none" xmlns="http://www.w3.org/2000/svg">
<path d="M13.0604 0.439485C12.7791 0.158278 12.3976 0.000305176 11.9999 0.000305176C11.6021 0.000305176 11.2207 0.158278 10.9394 0.439485L0.439378 10.9395C0.166141 11.2224 0.0149496 11.6013 0.0183673 11.9946C0.0217849 12.3879 0.179538 12.7641 0.45765 13.0422C0.735763 13.3203 1.11198 13.4781 1.50528 13.4815C1.89857 13.4849 2.27748 13.3337 2.56038 13.0605L2.99988 12.621V22.5C2.99988 22.8978 3.15791 23.2793 3.43922 23.5606C3.72052 23.8419 4.10205 24 4.49988 24H7.49988C7.8977 24 8.27923 23.8419 8.56054 23.5606C8.84184 23.2793 8.99988 22.8978 8.99988 22.5V19.5C8.99988 19.1022 9.15791 18.7206 9.43922 18.4393C9.72052 18.158 10.1021 18 10.4999 18H13.4999C13.8977 18 14.2792 18.158 14.5605 18.4393C14.8418 18.7206 14.9999 19.1022 14.9999 19.5V22.5C14.9999 22.8978 15.1579 23.2793 15.4392 23.5606C15.7205 23.8419 16.1021 24 16.4999 24H19.4999C19.8977 24 20.2792 23.8419 20.5605 23.5606C20.8418 23.2793 20.9999 22.8978 20.9999 22.5V12.621L21.4394 13.0605C21.7223 13.3337 22.1012 13.4849 22.4945 13.4815C22.8878 13.4781 23.264 13.3203 23.5421 13.0422C23.8202 12.7641 23.978 12.3879 23.9814 11.9946C23.9848 11.6013 23.8336 11.2224 23.5604 10.9395L13.0604 0.439485Z" fill="#9C36B5"/>
</svg>
