<svg width="21" height="20" viewBox="0 0 21 20" fill="none" xmlns="http://www.w3.org/2000/svg">
<path d="M4.09837 5.26499C3.75014 5.61321 3.47391 6.02661 3.28546 6.48159C3.097 6.93656 3 7.4242 3 7.91666C3 8.40912 3.097 8.89676 3.28546 9.35173C3.47391 9.80671 3.75014 10.2201 4.09837 10.5683L10.5 16.97L16.9017 10.5683C17.605 9.86506 18.0001 8.91123 18.0001 7.91666C18.0001 6.92209 17.605 5.96826 16.9017 5.26499C16.1984 4.56173 15.2446 4.16664 14.25 4.16664C13.2555 4.16664 12.3016 4.56173 11.5984 5.26499L10.5 6.36333L9.4017 5.26499C9.05348 4.91677 8.64008 4.64054 8.18511 4.45208C7.73013 4.26362 7.24249 4.16663 6.75003 4.16663C6.25757 4.16663 5.76993 4.26362 5.31496 4.45208C4.85998 4.64054 4.44659 4.91677 4.09837 5.26499V5.26499Z" stroke="#862E9C" stroke-width="2" stroke-linecap="round" stroke-linejoin="round"/>
</svg>
