<svg width="21" height="20" viewBox="0 0 21 20" fill="none" xmlns="http://www.w3.org/2000/svg">
<path d="M19.4222 7.75102C19.3279 7.45142 19.1508 7.18714 18.9127 6.99104C18.6747 6.79494 18.3863 6.67566 18.0835 6.64803L13.6622 6.25169L11.9325 1.9796C11.8135 1.68908 11.6147 1.44128 11.3608 1.26708C11.1068 1.09289 10.8091 1 10.5045 1C10.2 1 9.90225 1.09289 9.64833 1.26708C9.3944 1.44128 9.19555 1.68908 9.07656 1.9796L7.34453 6.25169L2.9233 6.64803C2.61877 6.67416 2.32846 6.79293 2.08882 6.98943C1.84917 7.18593 1.67085 7.45141 1.57624 7.75256C1.48162 8.05371 1.47492 8.37711 1.55698 8.68219C1.63905 8.98727 1.80621 9.26043 2.0375 9.46741L5.39763 12.5063L4.38928 17.0276C4.32013 17.3354 4.34007 17.6576 4.44661 17.9538C4.55315 18.25 4.74157 18.5071 4.9883 18.6929C5.23504 18.8787 5.52914 18.985 5.83385 18.9985C6.13856 19.012 6.44036 18.9322 6.70151 18.7689L10.5022 16.3764L14.3029 18.7689C14.5641 18.9319 14.8658 19.0116 15.1703 18.9979C15.4749 18.9843 15.7688 18.8779 16.0154 18.6922C16.262 18.5064 16.4503 18.2494 16.5569 17.9534C16.6634 17.6574 16.6834 17.3353 16.6144 17.0276L15.606 12.5063L18.9662 9.46741C19.1968 9.25968 19.3632 8.98596 19.4443 8.68061C19.5255 8.37526 19.5178 8.05187 19.4222 7.75102ZM14.2447 11.1774C14.032 11.3692 13.8738 11.6175 13.787 11.8955C13.7002 12.1736 13.6882 12.4709 13.7522 12.7555L14.6357 16.7205L11.305 14.6238C11.0631 14.4712 10.7854 14.3904 10.5022 14.3904C10.219 14.3904 9.94129 14.4712 9.69941 14.6238L6.36875 16.7205L7.25222 12.7555C7.31625 12.4709 7.30422 12.1736 7.21744 11.8955C7.13066 11.6175 6.9724 11.3692 6.75968 11.1774L3.80522 8.50591L7.69435 8.157C7.97597 8.13201 8.24559 8.02743 8.47385 7.85463C8.70211 7.68184 8.88026 7.44746 8.98891 7.17701L10.5022 3.43954L12.0155 7.17701C12.1242 7.44746 12.3023 7.68184 12.5306 7.85463C12.7588 8.02743 13.0285 8.13201 13.3101 8.157L17.1992 8.50591L14.2447 11.1774Z" fill="#862E9C"/>
</svg>
