<svg width="17" height="17" viewBox="0 0 17 17" fill="none" xmlns="http://www.w3.org/2000/svg">
<path d="M14.875 14.9305L10.625 10.6805L14.875 14.9305ZM12.0417 7.13888C12.0417 7.79001 11.9134 8.43477 11.6642 9.03635C11.4151 9.63792 11.0498 10.1845 10.5894 10.6449C10.129 11.1054 9.58238 11.4706 8.98081 11.7198C8.37923 11.969 7.73447 12.0972 7.08333 12.0972C6.4322 12.0972 5.78743 11.969 5.18586 11.7198C4.58429 11.4706 4.03769 11.1054 3.57726 10.6449C3.11684 10.1845 2.75161 9.63792 2.50243 9.03635C2.25325 8.43477 2.125 7.79001 2.125 7.13888C2.125 5.82384 2.64739 4.56267 3.57726 3.6328C4.50713 2.70294 5.7683 2.18054 7.08333 2.18054C8.39836 2.18054 9.65954 2.70294 10.5894 3.6328C11.5193 4.56267 12.0417 5.82384 12.0417 7.13888Z" stroke="#D2D2D2" stroke-width="2" stroke-linecap="round" stroke-linejoin="round"/>
</svg>
