<svg width="21" height="18" viewBox="0 0 21 18" fill="none" xmlns="http://www.w3.org/2000/svg">
<path d="M2.81799 2.31798C2.40012 2.73584 2.06865 3.23192 1.8425 3.77789C1.61635 4.32386 1.49995 4.90903 1.49995 5.49998C1.49995 6.09093 1.61635 6.6761 1.8425 7.22207C2.06865 7.76804 2.40012 8.26411 2.81799 8.68198L10.5 16.364L18.182 8.68198C19.0259 7.83806 19.5 6.69346 19.5 5.49998C19.5 4.3065 19.0259 3.1619 18.182 2.31798C17.3381 1.47406 16.1935 0.99995 15 0.99995C13.8065 0.99995 12.6619 1.47406 11.818 2.31798L10.5 3.63598L9.18199 2.31798C8.76413 1.90011 8.26805 1.56864 7.72208 1.34249C7.17611 1.11634 6.59095 0.999939 5.99999 0.999939C5.40904 0.999939 4.82387 1.11634 4.2779 1.34249C3.73194 1.56864 3.23586 1.90011 2.81799 2.31798V2.31798Z" stroke="white" stroke-width="2" stroke-linecap="round" stroke-linejoin="round"/>
</svg>
