<svg width="22" height="22" viewBox="0 0 22 22" fill="none" xmlns="http://www.w3.org/2000/svg">
  <path d="M21.7067 8.30123C21.5935 7.94171 21.3809 7.62458 21.0953 7.38926C20.8097 7.15394 20.4636 7.0108 20.1002 6.97764L14.7947 6.50204L12.719 1.37553C12.5763 1.02691 12.3376 0.729547 12.0329 0.520512C11.7282 0.311476 11.3709 0.200012 11.0055 0.200012C10.64 0.200012 10.2827 0.311476 9.978 0.520512C9.67329 0.729547 9.43467 1.02691 9.29189 1.37553L7.21344 6.50204L1.90797 6.97764C1.54253 7.009 1.19417 7.15153 0.906593 7.38733C0.619016 7.62313 0.405034 7.9417 0.291496 8.30308C0.177958 8.66446 0.169921 9.05254 0.268394 9.41864C0.366866 9.78473 0.567462 10.1125 0.845012 10.3609L4.87717 14.0075L3.66715 19.4331C3.58417 19.8025 3.6081 20.1892 3.73595 20.5446C3.8638 20.9 4.0899 21.2085 4.38598 21.4315C4.68206 21.6545 5.03499 21.782 5.40064 21.7982C5.76629 21.8145 6.12844 21.7186 6.44182 21.5227L11.0027 18.6517L15.5635 21.5227C15.8769 21.7183 16.2389 21.8139 16.6044 21.7975C16.9699 21.7812 17.3226 21.6535 17.6185 21.4306C17.9144 21.2077 18.1404 20.8993 18.2682 20.5441C18.3961 20.1888 18.4201 19.8024 18.3373 19.4331L17.1272 14.0075L21.1594 10.3609C21.4362 10.1116 21.6358 9.78317 21.7332 9.41674C21.8306 9.05032 21.8213 8.66225 21.7067 8.30123ZM15.4937 12.4129C15.2384 12.643 15.0485 12.941 14.9444 13.2746C14.8403 13.6083 14.8258 13.9651 14.9027 14.3066L15.9628 19.0646L11.966 16.5486C11.6758 16.3654 11.3425 16.2685 11.0027 16.2685C10.6628 16.2685 10.3296 16.3654 10.0393 16.5486L6.04252 19.0646L7.10268 14.3066C7.17951 13.9651 7.16508 13.6083 7.06094 13.2746C6.9568 12.941 6.76689 12.643 6.51163 12.4129L2.96627 9.2071L7.63323 8.78842C7.97118 8.75842 8.29472 8.63292 8.56863 8.42557C8.84254 8.21822 9.05632 7.93697 9.18671 7.61243L11.0027 3.12746L12.8186 7.61243C12.949 7.93697 13.1628 8.21822 13.4367 8.42557C13.7106 8.63292 14.0342 8.75842 14.3721 8.78842L19.0391 9.2071L15.4937 12.4129Z" fill="#FFFFFF"/>
</svg>
