<svg width="231" height="96" viewBox="0 0 231 96" fill="none" xmlns="http://www.w3.org/2000/svg">
<path d="M82.8452 21.5119C82.8452 19.4881 83.4523 17.8452 84.6666 16.5833C85.8809 15.3214 87.4761 14.6905 89.4523 14.6905C90.7301 14.6905 91.7658 14.9206 92.5595 15.381C93.3531 15.8333 93.7499 16.4246 93.7499 17.1548C93.7499 17.623 93.5991 18.0119 93.2975 18.3214C92.996 18.631 92.615 18.7857 92.1547 18.7857C91.9563 18.7857 91.5555 18.6905 90.9523 18.5C90.3491 18.3016 89.8491 18.2024 89.4523 18.2024C88.6587 18.2024 88.0158 18.5 87.5237 19.0952C87.0396 19.6905 86.7975 20.4722 86.7975 21.4405C86.7975 22.4484 87.0475 23.2421 87.5475 23.8214C88.0475 24.3929 88.7301 24.6786 89.5952 24.6786C90.0158 24.6786 90.5158 24.5833 91.0952 24.3929C91.6825 24.1944 92.0634 24.0952 92.238 24.0952C92.6587 24.0952 93.0118 24.2579 93.2975 24.5833C93.5833 24.9008 93.7261 25.2937 93.7261 25.7619C93.7261 26.4683 93.2936 27.0714 92.4285 27.5714C91.5634 28.0714 90.492 28.3214 89.2142 28.3214C87.3253 28.3214 85.7896 27.6944 84.6071 26.4405C83.4325 25.1786 82.8452 23.5357 82.8452 21.5119ZM98.3452 20.0714H103.417C103.369 19.4206 103.107 18.877 102.631 18.4405C102.155 18.004 101.587 17.7857 100.929 17.7857C100.278 17.7857 99.7182 17.9921 99.2499 18.4048C98.7817 18.8175 98.4801 19.373 98.3452 20.0714ZM98.3928 22.5833C98.4801 23.3056 98.7777 23.869 99.2856 24.2738C99.7936 24.6786 100.464 24.881 101.298 24.881C102.02 24.881 102.821 24.6746 103.702 24.2619C104.591 23.8413 105.139 23.631 105.345 23.631C105.798 23.631 106.167 23.7698 106.452 24.0476C106.738 24.3254 106.881 24.6825 106.881 25.119C106.881 25.9444 106.305 26.6905 105.155 27.3571C104.004 28.0159 102.651 28.3452 101.095 28.3452C99.1983 28.3452 97.615 27.6984 96.3452 26.4048C95.0753 25.1111 94.4404 23.4881 94.4404 21.5357C94.4404 19.5754 95.0555 17.9405 96.2856 16.631C97.5237 15.3214 99.0634 14.6667 100.905 14.6667C102.682 14.6667 104.171 15.2817 105.369 16.5119C106.567 17.7421 107.167 19.246 107.167 21.0238C107.167 21.6032 107.036 22.0079 106.774 22.2381C106.512 22.4683 106.008 22.5833 105.262 22.5833H98.3928ZM108.869 25.369V17.6429C108.869 16.6984 109.024 16 109.333 15.5476C109.651 15.0873 110.135 14.8571 110.786 14.8571C111.175 14.8571 111.52 14.9603 111.821 15.1667C112.123 15.3651 112.389 15.6706 112.619 16.0833C113.032 15.631 113.508 15.3016 114.048 15.0952C114.587 14.8889 115.242 14.7857 116.012 14.7857C117.528 14.7857 118.686 15.2183 119.488 16.0833C120.29 16.9484 120.69 18.2063 120.69 19.8571V25.369C120.69 26.3135 120.532 27.0159 120.214 27.4762C119.897 27.9365 119.413 28.1667 118.762 28.1667C118.111 28.1667 117.627 27.9365 117.309 27.4762C116.992 27.0159 116.833 26.3135 116.833 25.369V21.0238C116.833 19.9524 116.671 19.1905 116.345 18.7381C116.028 18.2778 115.5 18.0476 114.762 18.0476C114.063 18.0476 113.548 18.2857 113.214 18.7619C112.881 19.2302 112.714 19.9683 112.714 20.9762V25.369C112.714 26.3135 112.555 27.0159 112.238 27.4762C111.921 27.9365 111.436 28.1667 110.786 28.1667C110.135 28.1667 109.651 27.9365 109.333 27.4762C109.024 27.0159 108.869 26.3135 108.869 25.369ZM124 18.5595H123.857C123.182 18.5595 122.651 18.4127 122.262 18.119C121.881 17.8175 121.69 17.4127 121.69 16.9048C121.69 16.381 121.881 15.9762 122.262 15.6905C122.651 15.4048 123.23 15.2421 124 15.2024V13.5119C124 12.5675 124.159 11.8651 124.476 11.4048C124.794 10.9444 125.278 10.7143 125.928 10.7143C126.571 10.7143 127.048 10.9444 127.357 11.4048C127.675 11.8651 127.833 12.5675 127.833 13.5119V15.2024H128.167C128.928 15.2024 129.52 15.3532 129.94 15.6548C130.369 15.9563 130.583 16.373 130.583 16.9048C130.583 17.4524 130.377 17.8651 129.964 18.1429C129.559 18.4206 128.952 18.5595 128.143 18.5595H127.833V25.369C127.833 26.3214 127.678 27.0278 127.369 27.4881C127.059 27.9405 126.579 28.1667 125.928 28.1667C125.278 28.1667 124.794 27.9365 124.476 27.4762C124.159 27.0159 124 26.3135 124 25.369V18.5595ZM131.345 25.369V17.6429C131.345 16.6984 131.5 16 131.809 15.5476C132.127 15.0873 132.611 14.8571 133.262 14.8571C133.651 14.8571 133.996 14.9603 134.298 15.1667C134.599 15.3651 134.865 15.6706 135.095 16.0833C135.492 15.6548 135.913 15.3333 136.357 15.119C136.802 14.8968 137.25 14.7857 137.702 14.7857C138.234 14.7857 138.69 14.9762 139.071 15.3571C139.46 15.7302 139.655 16.1746 139.655 16.6905C139.655 17.4603 138.948 18.1032 137.536 18.619C137.028 18.8016 136.647 18.9524 136.393 19.0714C135.909 19.3016 135.587 19.5595 135.429 19.8452C135.27 20.123 135.19 20.631 135.19 21.369V25.369C135.19 26.3135 135.032 27.0159 134.714 27.4762C134.397 27.9365 133.913 28.1667 133.262 28.1667C132.611 28.1667 132.127 27.9365 131.809 27.4762C131.5 27.0159 131.345 26.3135 131.345 25.369ZM148.893 26.8333C148.504 27.3095 148.032 27.6746 147.476 27.9286C146.928 28.1746 146.329 28.2976 145.678 28.2976C144.036 28.2976 142.651 27.6508 141.524 26.3571C140.405 25.0635 139.845 23.4484 139.845 21.5119C139.845 19.5992 140.425 17.9881 141.583 16.6786C142.742 15.369 144.155 14.7143 145.821 14.7143C146.472 14.7143 147.048 14.8254 147.548 15.0476C148.055 15.2698 148.504 15.6151 148.893 16.0833C149.115 15.6786 149.381 15.373 149.69 15.1667C150 14.9603 150.345 14.8571 150.726 14.8571C151.369 14.8571 151.845 15.0833 152.155 15.5357C152.464 15.9881 152.619 16.6905 152.619 17.6429V25.369C152.619 26.3135 152.46 27.0159 152.143 27.4762C151.833 27.9365 151.361 28.1667 150.726 28.1667C150.298 28.1667 149.936 28.0595 149.643 27.8452C149.349 27.631 149.099 27.2937 148.893 26.8333ZM143.821 21.4643C143.821 22.4087 144.052 23.1706 144.512 23.75C144.972 24.3214 145.571 24.6071 146.309 24.6071C147.032 24.6071 147.623 24.3175 148.083 23.7381C148.544 23.1508 148.774 22.3929 148.774 21.4643C148.774 20.5595 148.54 19.8214 148.071 19.25C147.611 18.6786 147.024 18.3929 146.309 18.3929C145.579 18.3929 144.98 18.6786 144.512 19.25C144.052 19.8135 143.821 20.5516 143.821 21.4643ZM155.417 12.2024C155.417 11.25 155.575 10.5437 155.893 10.0833C156.21 9.62302 156.694 9.39286 157.345 9.39286C157.98 9.39286 158.452 9.62699 158.762 10.0952C159.079 10.5556 159.238 11.2579 159.238 12.2024V25.369C159.238 26.3214 159.083 27.0278 158.774 27.4881C158.464 27.9405 157.988 28.1667 157.345 28.1667C156.694 28.1667 156.21 27.9365 155.893 27.4762C155.575 27.0159 155.417 26.3135 155.417 25.369V12.2024ZM173.107 21.4405C173.107 22.3929 173.345 23.1667 173.821 23.7619C174.298 24.3571 174.905 24.6548 175.643 24.6548C176.381 24.6548 176.984 24.3611 177.452 23.7738C177.921 23.1786 178.155 22.4008 178.155 21.4405C178.155 20.4643 177.921 19.6786 177.452 19.0833C176.992 18.4802 176.389 18.1786 175.643 18.1786C174.897 18.1786 174.286 18.4802 173.809 19.0833C173.341 19.6865 173.107 20.4722 173.107 21.4405ZM178.202 26.9286C177.805 27.3571 177.341 27.6825 176.809 27.9048C176.286 28.127 175.71 28.2381 175.083 28.2381C173.472 28.2381 172.079 27.5754 170.905 26.25C169.738 24.9167 169.155 23.2976 169.155 21.3929C169.155 19.4881 169.73 17.8849 170.881 16.5833C172.04 15.2738 173.44 14.619 175.083 14.619C175.678 14.619 176.222 14.7103 176.714 14.8929C177.206 15.0675 177.671 15.3413 178.107 15.7143V12.2024C178.107 11.25 178.262 10.5437 178.571 10.0833C178.889 9.62302 179.377 9.39286 180.036 9.39286C180.671 9.39286 181.143 9.62699 181.452 10.0952C181.77 10.5556 181.928 11.2579 181.928 12.2024V25.369C181.928 26.3214 181.774 27.0278 181.464 27.4881C181.155 27.9405 180.678 28.1667 180.036 28.1667C179.655 28.1667 179.309 28.0635 179 27.8571C178.69 27.6429 178.425 27.3333 178.202 26.9286ZM192.893 26.8333C192.504 27.3095 192.032 27.6746 191.476 27.9286C190.928 28.1746 190.329 28.2976 189.678 28.2976C188.036 28.2976 186.651 27.6508 185.524 26.3571C184.405 25.0635 183.845 23.4484 183.845 21.5119C183.845 19.5992 184.425 17.9881 185.583 16.6786C186.742 15.369 188.155 14.7143 189.821 14.7143C190.472 14.7143 191.048 14.8254 191.548 15.0476C192.055 15.2698 192.504 15.6151 192.893 16.0833C193.115 15.6786 193.381 15.373 193.69 15.1667C194 14.9603 194.345 14.8571 194.726 14.8571C195.369 14.8571 195.845 15.0833 196.155 15.5357C196.464 15.9881 196.619 16.6905 196.619 17.6429V25.369C196.619 26.3135 196.46 27.0159 196.143 27.4762C195.833 27.9365 195.361 28.1667 194.726 28.1667C194.298 28.1667 193.936 28.0595 193.643 27.8452C193.349 27.631 193.099 27.2937 192.893 26.8333ZM187.821 21.4643C187.821 22.4087 188.052 23.1706 188.512 23.75C188.972 24.3214 189.571 24.6071 190.309 24.6071C191.032 24.6071 191.623 24.3175 192.083 23.7381C192.544 23.1508 192.774 22.3929 192.774 21.4643C192.774 20.5595 192.54 19.8214 192.071 19.25C191.611 18.6786 191.024 18.3929 190.309 18.3929C189.579 18.3929 188.98 18.6786 188.512 19.25C188.052 19.8135 187.821 20.5516 187.821 21.4643ZM202.976 28.369C201.603 28.369 200.464 28.0952 199.559 27.5476C198.663 27 198.214 26.3214 198.214 25.5119C198.214 25.0278 198.357 24.619 198.643 24.2857C198.928 23.9524 199.274 23.7857 199.678 23.7857C200.083 23.7857 200.678 23.9722 201.464 24.3452C202.25 24.7183 202.841 24.9048 203.238 24.9048C203.555 24.9048 203.813 24.8294 204.012 24.6786C204.21 24.5278 204.309 24.3413 204.309 24.119C204.309 23.7381 203.694 23.3016 202.464 22.8095C202.353 22.7619 202.274 22.7302 202.226 22.7143C200.813 22.127 199.849 21.5476 199.333 20.9762C198.817 20.3968 198.559 19.6667 198.559 18.7857C198.559 17.6032 199.012 16.619 199.917 15.8333C200.829 15.0397 201.98 14.6429 203.369 14.6429C204.623 14.6429 205.686 14.9087 206.559 15.4405C207.432 15.9722 207.869 16.5992 207.869 17.3214C207.869 17.7738 207.714 18.1548 207.405 18.4643C207.103 18.7738 206.73 18.9286 206.286 18.9286C205.992 18.9286 205.492 18.7738 204.786 18.4643C204.087 18.1548 203.555 18 203.19 18C202.928 18 202.718 18.0635 202.559 18.1905C202.401 18.3095 202.321 18.4683 202.321 18.6667C202.321 19.0238 202.829 19.3968 203.845 19.7857C204.321 19.9683 204.698 20.123 204.976 20.25C206.127 20.7659 206.944 21.3135 207.428 21.8929C207.921 22.4643 208.167 23.1587 208.167 23.9762C208.167 25.2302 207.675 26.2778 206.69 27.119C205.714 27.9524 204.476 28.369 202.976 28.369Z" fill="white"/>
<path d="M94.1041 53.7011C94.1041 57.5463 95.0183 60.6282 96.8467 62.9466C98.675 65.2462 101.097 66.396 104.113 66.396C107.129 66.396 109.551 65.2462 111.379 62.9466C113.208 60.6282 114.122 57.5463 114.122 53.7011C114.122 49.7239 113.217 46.5667 111.408 44.2294C109.598 41.8921 107.167 40.7234 104.113 40.7234C101.059 40.7234 98.6279 41.8921 96.8184 44.2294C95.0089 46.5667 94.1041 49.7239 94.1041 53.7011ZM83.8973 53.588C83.8973 47.085 85.7539 41.8355 89.4672 37.8395C93.1993 33.8246 98.0813 31.8172 104.113 31.8172C110.164 31.8172 115.055 33.8246 118.787 37.8395C122.519 41.8544 124.385 47.1039 124.385 53.588C124.385 60.1098 122.519 65.3688 118.787 69.3648C115.074 73.3608 110.182 75.3588 104.113 75.3588C98.0436 75.3588 93.1522 73.3608 89.4389 69.3648C85.7445 65.3688 83.8973 60.1098 83.8973 53.588ZM136.715 68.0076C136.715 70.2507 136.329 71.9189 135.556 73.0121C134.783 74.1054 133.605 74.652 132.022 74.652C130.438 74.652 129.26 74.1054 128.487 73.0121C127.714 71.9189 127.328 70.2507 127.328 68.0076V38.7725C127.328 36.6614 127.686 35.0875 128.402 34.0508C129.119 33.0141 130.212 32.4957 131.682 32.4957C132.625 32.4957 133.473 32.7314 134.227 33.2026C135 33.655 135.81 34.4278 136.658 35.521L153.962 58.3946V39.1118C153.962 36.8688 154.348 35.2006 155.121 34.1074C155.894 32.9952 157.072 32.4392 158.655 32.4392C160.239 32.4392 161.417 32.9952 162.19 34.1074C162.963 35.2006 163.349 36.8688 163.349 39.1118V69.0538C163.349 71.0518 163 72.5315 162.303 73.4928C161.605 74.4352 160.522 74.9065 159.051 74.9065C158.071 74.9065 157.157 74.6331 156.309 74.0865C155.461 73.5399 154.584 72.6728 153.679 71.4853L136.715 49.0642V68.0076ZM195.074 58.1118H191.766C189.504 58.1118 187.836 57.7631 186.762 57.0657C185.706 56.3494 185.179 55.2467 185.179 53.7576C185.179 52.2686 185.716 51.1659 186.79 50.4496C187.865 49.7145 189.523 49.3469 191.766 49.3469H198.665C201.002 49.3469 202.68 49.837 203.698 50.8172C204.716 51.7973 205.225 53.3995 205.225 55.6237C205.225 61.4858 203.453 66.2452 199.909 69.902C196.384 73.5399 191.748 75.3588 185.999 75.3588C180.212 75.3588 175.481 73.3326 171.805 69.28C168.129 65.2274 166.292 59.9779 166.292 53.5315C166.292 46.8777 168.167 41.5905 171.918 37.6699C175.688 33.7304 180.749 31.7606 187.101 31.7606C191.305 31.7606 194.876 32.6277 197.817 34.3618C200.776 36.0959 202.256 38.0845 202.256 40.3276C202.256 41.4962 201.86 42.5235 201.068 43.4094C200.277 44.2953 199.344 44.7383 198.269 44.7383C197.572 44.7383 196.017 44.0692 193.604 42.7309C191.191 41.3926 188.92 40.7234 186.79 40.7234C183.605 40.7234 181.079 41.8544 179.213 44.1163C177.366 46.3593 176.442 49.4412 176.442 53.3618C176.442 57.339 177.375 60.5057 179.241 62.8618C181.107 65.218 183.605 66.396 186.734 66.396C189.222 66.396 191.22 65.6515 192.728 64.1624C194.236 62.6545 195.018 60.6376 195.074 58.1118ZM216.084 75.0196C212.823 75.0196 210.118 74.3693 207.97 73.0687C205.84 71.7681 204.775 70.1565 204.775 68.2338C204.775 67.084 205.114 66.1133 205.792 65.3216C206.471 64.53 207.291 64.1341 208.252 64.1341C209.214 64.1341 210.627 64.5771 212.493 65.463C214.359 66.3489 215.764 66.7919 216.706 66.7919C217.46 66.7919 218.073 66.6128 218.544 66.2547C219.015 65.8965 219.251 65.4536 219.251 64.9258C219.251 64.021 217.79 62.9843 214.868 61.8157C214.604 61.7026 214.416 61.6272 214.303 61.5895C210.948 60.1947 208.658 58.8187 207.432 57.4615C206.207 56.0855 205.595 54.3514 205.595 52.2591C205.595 49.4506 206.669 47.1133 208.818 45.2472C210.985 43.3623 213.719 42.4199 217.017 42.4199C219.995 42.4199 222.521 43.0513 224.595 44.3142C226.668 45.5771 227.705 47.0662 227.705 48.7815C227.705 49.8559 227.337 50.7606 226.602 51.4957C225.886 52.2309 225 52.5984 223.944 52.5984C223.247 52.5984 222.059 52.2309 220.382 51.4957C218.723 50.7606 217.46 50.3931 216.593 50.3931C215.971 50.3931 215.471 50.5439 215.095 50.8454C214.718 51.1282 214.529 51.5052 214.529 51.9764C214.529 52.8246 215.735 53.7105 218.148 54.6341C219.279 55.0677 220.174 55.4352 220.834 55.7368C223.567 56.962 225.509 58.2626 226.659 59.6386C227.827 60.9957 228.411 62.6451 228.411 64.5865C228.411 67.5647 227.243 70.0528 224.906 72.0508C222.587 74.03 219.647 75.0196 216.084 75.0196Z" fill="white"/>
<g clip-path="url(#clip0_44_1706)">
<path d="M36.5663 85.3226C56.7613 85.3226 73.1325 68.6103 73.1325 47.9946C73.1325 27.3788 56.7613 10.6665 36.5663 10.6665C16.3713 10.6665 0 27.3788 0 47.9946C0 68.6103 16.3713 85.3226 36.5663 85.3226Z" fill="#F08C00"/>
<path fill-rule="evenodd" clip-rule="evenodd" d="M36.5507 39.4134C35.2348 39.4767 33.3048 38.697 31.9734 37.5539C29.1817 35.1675 26.5602 32.2333 25.0224 28.8303C23.8304 26.1964 23.5053 22.7354 26.7099 21.5501C30.4821 20.1594 32.185 23.5677 34.7807 25.7275C36.0708 26.8022 37.077 26.1279 38.1039 24.7161C39.6314 22.609 42.1084 19.9434 44.3686 21.8925C46.0509 23.3465 45.7825 25.7328 45.3026 27.703C44.4408 31.2272 42.1032 34.4037 39.8791 37.1641C39.1566 38.0491 37.8666 39.345 36.5507 39.4134Z" fill="white"/>
<path fill-rule="evenodd" clip-rule="evenodd" d="M28.3201 42.3525C31.086 42.3525 33.3359 44.6493 33.3359 47.4729C33.3359 50.2965 31.086 52.5933 28.3201 52.5933C25.549 52.5933 23.3042 50.2965 23.3042 47.4729C23.3042 44.6441 25.5541 42.3525 28.3201 42.3525Z" fill="white"/>
<path fill-rule="evenodd" clip-rule="evenodd" d="M47.8003 38.7231C50.5714 38.7231 52.8161 41.0199 52.8161 43.8435C52.8161 46.6723 50.5662 48.9639 47.8003 48.9639C45.0343 48.9639 42.7844 46.6671 42.7844 43.8435C42.7844 41.0199 45.0292 38.7231 47.8003 38.7231Z" fill="white"/>
<path fill-rule="evenodd" clip-rule="evenodd" d="M38.2692 58.7622C40.2405 58.7622 41.8454 60.3952 41.8454 62.4128C41.8454 64.4252 40.2457 66.0635 38.2692 66.0635C36.298 66.0635 34.6931 64.4252 34.6931 62.4128C34.6931 60.4005 36.2928 58.7622 38.2692 58.7622Z" fill="white"/>
<path d="M24.8573 67.4068C26.2196 64.0564 28.8049 64.4778 31.6173 63.4822C32.6184 63.1293 33.3564 62.2074 32.7939 61.1222C31.8186 59.2469 29.5222 58.0089 27.8296 56.929C25.1411 55.2117 22.4938 53.4733 20.8167 50.6339C19.186 47.8736 18.8093 44.3862 18.2572 41.2677C18.0766 40.251 17.8908 38.2439 16.4975 38.1965C14.9339 38.1438 13.8864 39.3502 13.1071 40.5828C11.6519 42.9007 10.816 45.4029 10.1709 48.0685C8.3751 55.5014 7.43592 63.556 8.90146 71.1522C8.99951 71.6685 9.13368 72.2427 9.28849 72.8537C13.3136 77.4526 18.4326 81.0295 24.2329 83.1524C24.0058 80.8135 23.9697 78.4377 23.8974 76.1198C23.8149 73.3173 23.7839 70.046 24.8573 67.4068Z" fill="white"/>
<path d="M46.4741 71.3787C47.3255 69.8826 48.6569 67.9124 49.1884 66.2847C49.9005 64.1038 47.919 63.0449 46.4379 64.304C43.6307 66.6903 41.6388 67.9124 38.0524 68.4392C36.1585 68.7184 33.7899 67.9809 32.0664 66.8536C31.2149 66.3005 30.1519 65.2627 29.0579 65.5735C27.4994 66.0213 28.3664 69.0819 28.8618 69.9774C30.477 72.9169 31.6896 74.7607 32.056 77.4315C32.3915 79.8705 31.6019 82.4412 31.411 84.954C33.0984 85.1963 34.822 85.3333 36.5765 85.3333C39.1928 85.3333 41.742 85.0488 44.1983 84.5168C43.0527 79.881 44.1725 75.4086 46.4741 71.3787Z" fill="white"/>
<path d="M68.6067 49.7596C68.2662 46.6304 67.6263 43.7173 66.4136 40.7989C65.8666 39.4872 65.0822 38.0386 63.5857 37.7594C61.9293 37.4486 60.4586 38.8445 59.4781 40.014C57.0682 42.8903 56.1445 46.6252 53.3373 49.2591C49.9159 52.462 46.4379 53.1204 42.0154 53.663C40.715 53.8211 38.5683 54.3637 38.5167 56.0652C38.4806 57.2346 39.5952 58.0248 40.5189 58.4252C42.8875 59.4577 45.5038 58.6728 47.7486 60.2689C53.7243 64.499 52.6406 72.5009 51.4537 78.7539C51.1957 80.1024 50.7829 81.372 50.2669 82.6152C56.8618 79.8917 62.4969 75.2718 66.522 69.4034C68.4055 63.0346 69.3034 56.1495 68.6067 49.7596Z" fill="white"/>
</g>
<defs>
<clipPath id="clip0_44_1706">
<rect width="73.1429" height="74.6667" fill="white" transform="translate(0 10.6665)"/>
</clipPath>
</defs>
</svg>
